# xmcd
#
# Track frame offsets:
# 150
# 29005
# 55191
# 76752
# 100973
# 122455
# 144900
# 167697
#
# Disc length: 2540 seconds
#
#
# Revision: 0
# Processed by: cddbd v1.5.2PL0 Copyright (c) Steve Scherf et al.
# Submitted via: FreeRIP 2.945 
#
DISCID=5d09ea08
DTITLE=Peabo Bryson - Crosswinds
DYEAR=1978
DGENRE=R&B
TTITLE0=Crosswinds
TTITLE1=I'm So Into You
TTITLE2=Smile
TTITLE3=She's A Woman
TTITLE4=Point of View
TTITLE5=Spread Your Wings
TTITLE6=Don't Touch Me
TTITLE7=Love Is Watching You
EXTD=
EXTT0=
EXTT1=
EXTT2=
EXTT3=
EXTT4=
EXTT5=
EXTT6=
EXTT7=
PLAYORDER=
